<svg width="174" height="32" viewBox="0 0 174 32" fill="none" xmlns="http://www.w3.org/2000/svg">
<path d="M158.201 31.9513H17.8674C9.13238 31.9513 2.06799 24.8223 2.06799 16.0074C2.06799 7.19248 9.13238 0.0634766 17.8674 0.0634766H158.201C166.936 0.0634766 174 7.19248 174 16.0074C174 24.7742 166.936 31.9513 158.201 31.9513Z" fill="white"/>
<path d="M49.514 12.153C49.3709 12.3457 49.2277 12.5383 49.0845 12.5865C48.9413 12.6828 48.7503 12.731 48.5117 12.731C48.273 12.731 48.0343 12.6828 47.7957 12.5865C47.557 12.4902 47.2706 12.3457 46.9842 12.2493C46.6978 12.1048 46.3637 12.0085 46.0296 11.9121C45.6477 11.8158 45.2659 11.7676 44.7885 11.7676C44.1203 11.7676 43.643 11.9121 43.2611 12.153C42.927 12.3938 42.736 12.7792 42.736 13.2127C42.736 13.5499 42.8315 13.7907 43.0702 14.0316C43.3088 14.2242 43.5952 14.4169 43.9771 14.6096C44.3589 14.7541 44.7885 14.9468 45.2659 15.0913C45.7432 15.2358 46.2205 15.3803 46.7456 15.573C47.2706 15.7657 47.7479 15.9583 48.2253 16.1992C48.7026 16.44 49.1322 16.729 49.514 17.1144C49.8959 17.4516 50.1823 17.8851 50.421 18.4149C50.6596 18.8966 50.7551 19.5228 50.7551 20.2454C50.7551 21.1124 50.6119 21.8831 50.2778 22.6538C49.9436 23.3763 49.514 24.0025 48.8935 24.5324C48.273 25.0623 47.5093 25.4476 46.6024 25.7848C45.6955 26.0738 44.6453 26.2183 43.452 26.2183C42.8792 26.2183 42.2587 26.1701 41.6859 26.0738C41.1131 25.9775 40.5404 25.833 39.9676 25.6403C39.3948 25.4476 38.9175 25.2068 38.4401 24.9659C37.9628 24.7251 37.581 24.4361 37.2468 24.0989L38.4401 22.1721C38.5833 21.9313 38.7265 21.7868 38.9652 21.6423C39.1561 21.4978 39.4425 21.4496 39.7766 21.4496C40.063 21.4496 40.3494 21.4978 40.5881 21.6423C40.8268 21.7868 41.0654 21.9313 41.3518 22.0758C41.6382 22.2203 41.9723 22.3648 42.3542 22.5093C42.7361 22.6538 43.2134 22.702 43.7384 22.702C44.1203 22.702 44.4544 22.6538 44.7408 22.5575C45.0272 22.4611 45.2181 22.3648 45.4091 22.2203C45.6 22.0758 45.6955 21.9313 45.7909 21.7386C45.8864 21.5459 45.8864 21.3533 45.8864 21.1606C45.8864 20.8234 45.7909 20.5344 45.5523 20.2935C45.3136 20.0527 45.0272 19.86 44.6453 19.7155C44.2635 19.571 43.8339 19.3783 43.3566 19.282C42.8792 19.1375 42.4019 18.993 41.8769 18.8003C41.3995 18.6076 40.8745 18.4149 40.3972 18.1741C39.9198 17.9333 39.4902 17.5961 39.1084 17.2107C38.7265 16.8254 38.4401 16.3437 38.2015 15.7657C37.9628 15.1876 37.8673 14.5133 37.8673 13.7426C37.8673 13.02 38.0105 12.2975 38.2969 11.6231C38.5833 10.9488 39.0129 10.3707 39.5857 9.84087C40.1585 9.31101 40.8745 8.92566 41.7337 8.63664C42.5929 8.34763 43.5952 8.20312 44.7408 8.20312C45.3613 8.20312 45.9819 8.25129 46.5546 8.3958C47.1274 8.49214 47.7002 8.68481 48.1775 8.87749C48.7026 9.07017 49.1322 9.31101 49.5618 9.60002C49.9914 9.88904 50.3732 10.1781 50.6596 10.5152L49.514 12.153Z" fill="#D8271C"/>
<path d="M50.6597 8.58887H54.8124C55.1942 8.58887 55.4806 8.68521 55.7193 8.82971C55.958 9.02239 56.1489 9.21506 56.2444 9.45591L57.9627 17.3074C58.1059 17.8855 58.2491 18.4635 58.3446 19.0415C58.44 19.6196 58.5355 20.1494 58.631 20.7274C58.7742 20.1976 58.9651 19.6196 59.1083 19.0415C59.2515 18.4635 59.4424 17.8855 59.6334 17.3074L61.7813 9.45591C61.8768 9.21506 62.02 8.97422 62.2586 8.82971C62.4973 8.63704 62.7837 8.58887 63.1178 8.58887H65.409C65.7908 8.58887 66.0772 8.68521 66.3159 8.82971C66.5545 9.02239 66.7455 9.21506 66.8409 9.45591L68.8934 17.3074C69.0366 17.8855 69.2276 18.4635 69.3708 19.0415C69.514 19.6196 69.6572 20.1494 69.8003 20.7274C69.8958 20.1494 69.9913 19.6196 70.1345 19.0415C70.2777 18.4635 70.4209 17.8855 70.5641 17.3074L72.3779 9.45591C72.4734 9.21506 72.6166 8.97422 72.8552 8.82971C73.0939 8.63704 73.3803 8.58887 73.7144 8.58887H77.6762L72.2824 26.0742H68.082C67.8433 26.0742 67.6524 26.026 67.5092 25.8815C67.366 25.737 67.2228 25.5443 67.1273 25.2072L64.6453 16.4886C64.5021 16.1032 64.4066 15.7179 64.3111 15.3325C64.2157 14.9472 64.1202 14.5618 64.0725 14.1765C63.977 14.5618 63.9293 14.9472 63.8338 15.3325C63.7383 15.7179 63.6429 16.1032 63.4997 16.4886L61.0176 25.159C60.8267 25.737 60.4925 26.026 59.9198 26.026H56.0534L50.6597 8.58887Z" fill="#D8271C"/>
<path d="M85.6474 8.05859C86.7929 8.05859 87.843 8.25127 88.7977 8.58845C89.7523 8.92563 90.5638 9.45549 91.232 10.1299C91.9003 10.8042 92.4731 11.6713 92.8549 12.6346C93.2368 13.6462 93.4277 14.7541 93.4277 16.0065C93.4277 16.3918 93.4277 16.729 93.38 16.9699C93.3323 17.2107 93.2845 17.4034 93.1891 17.5479C93.0936 17.6924 92.9981 17.7887 92.8072 17.8369C92.664 17.8851 92.4731 17.9332 92.2344 17.9332H82.3061C82.4493 19.3783 82.9266 20.438 83.6426 21.1124C84.3586 21.7867 85.2655 22.0758 86.4111 22.0758C87.0316 22.0758 87.5089 22.0276 87.9862 21.8349C88.4158 21.6904 88.7977 21.5459 89.1318 21.3532C89.4659 21.1606 89.8001 21.016 90.0865 20.8715C90.3729 20.727 90.6592 20.6307 90.9934 20.6307C91.423 20.6307 91.7094 20.7752 91.948 21.0642L93.4755 22.9428C92.9504 23.569 92.3776 24.0507 91.7571 24.436C91.1366 24.8214 90.5161 25.1104 89.8478 25.3513C89.1795 25.5921 88.559 25.7366 87.8908 25.7848C87.2225 25.8811 86.602 25.9293 86.0292 25.9293C84.8359 25.9293 83.6903 25.7366 82.6402 25.3513C81.5901 24.9659 80.6355 24.3397 79.8717 23.569C79.0603 22.7983 78.4398 21.7867 77.9624 20.6307C77.4851 19.4746 77.2942 18.1259 77.2942 16.5363C77.2942 15.3803 77.4851 14.2724 77.867 13.2127C78.2488 12.153 78.8216 11.2377 79.5853 10.467C80.3013 9.69634 81.2082 9.07014 82.2584 8.58845C83.1653 8.29944 84.3586 8.05859 85.6474 8.05859ZM85.7428 11.6713C84.7404 11.6713 83.9767 11.9603 83.4039 12.5383C82.8311 13.1163 82.497 13.9352 82.3061 14.9949H88.75C88.75 14.5614 88.7022 14.1761 88.6068 13.7907C88.5113 13.4053 88.3204 13.0682 88.0817 12.731C87.843 12.442 87.5089 12.153 87.1271 11.9603C86.7929 11.7676 86.3156 11.6713 85.7428 11.6713Z" fill="#D8271C"/>
<path d="M103.834 8.05859C104.979 8.05859 106.029 8.25127 106.984 8.58845C107.938 8.92563 108.75 9.45549 109.418 10.1299C110.086 10.8042 110.612 11.6713 111.041 12.6346C111.423 13.6462 111.614 14.7541 111.614 16.0065C111.614 16.3918 111.614 16.729 111.566 16.9699C111.518 17.2107 111.471 17.4034 111.375 17.5479C111.28 17.6924 111.184 17.7887 110.993 17.8369C110.85 17.8851 110.659 17.9332 110.421 17.9332H100.445C100.588 19.3783 101.065 20.438 101.781 21.1124C102.497 21.7867 103.404 22.0758 104.55 22.0758C105.17 22.0758 105.647 22.0276 106.125 21.8349C106.554 21.6904 106.936 21.5459 107.27 21.3532C107.604 21.1606 107.938 21.016 108.225 20.8715C108.511 20.727 108.798 20.6307 109.132 20.6307C109.561 20.6307 109.848 20.7752 110.086 21.0642L111.566 22.9428C111.041 23.569 110.468 24.0507 109.848 24.436C109.227 24.8214 108.607 25.1104 107.938 25.3513C107.27 25.5921 106.65 25.7366 105.981 25.7848C105.313 25.8811 104.693 25.9293 104.12 25.9293C102.927 25.9293 101.781 25.7366 100.683 25.3513C99.6331 24.9659 98.6784 24.3397 97.9147 23.569C97.1033 22.7983 96.4827 21.7867 96.0054 20.6307C95.5281 19.4746 95.2894 18.1259 95.2894 16.5363C95.2894 15.3803 95.4804 14.2724 95.8622 13.2127C96.2441 12.153 96.8169 11.2377 97.5806 10.467C98.3443 9.69634 99.2035 9.07014 100.254 8.58845C101.351 8.29944 102.497 8.05859 103.834 8.05859ZM103.929 11.6713C102.927 11.6713 102.163 11.9603 101.59 12.5383C101.017 13.1163 100.683 13.9352 100.492 14.9949H106.936C106.936 14.5614 106.888 14.1761 106.793 13.7907C106.697 13.4053 106.507 13.0682 106.268 12.731C106.029 12.442 105.695 12.153 105.313 11.9603C104.979 11.7676 104.502 11.6713 103.929 11.6713Z" fill="#D8271C"/>
<path d="M129.657 21.9798C129.514 21.6427 129.275 21.3055 129.036 21.0646C128.75 20.8238 128.463 20.5829 128.082 20.4384C127.366 20.1494 126.459 20.1494 125.743 20.4384C125.361 20.5829 125.074 20.8238 124.788 21.0646C124.502 21.3055 124.311 21.6427 124.167 21.9798C124.024 22.317 123.929 22.7024 123.929 23.1359C123.929 23.5694 124.024 23.9548 124.167 24.292C124.311 24.6773 124.549 24.9663 124.788 25.2072C125.074 25.4962 125.361 25.6889 125.743 25.8334C126.125 25.9779 126.506 26.0742 126.936 26.0742C127.366 26.0742 127.747 25.9779 128.082 25.8334C128.416 25.6889 128.75 25.4962 129.036 25.2072C129.323 24.9663 129.514 24.6291 129.657 24.2438C129.8 23.8584 129.895 23.4731 129.895 23.0877C129.895 22.7024 129.8 22.317 129.657 21.9798Z" fill="#D8271C"/>
<path d="M154.573 26.0742H149.847L143.117 8.58887H147.413C147.795 8.58887 148.081 8.68521 148.32 8.82971C148.559 9.02239 148.75 9.21506 148.845 9.45591L151.232 17.3074C151.423 17.9336 151.614 18.5598 151.804 19.186C151.948 19.8122 152.091 20.3903 152.234 21.0165C152.377 20.3903 152.52 19.8122 152.664 19.186C152.807 18.5598 153.046 17.9336 153.236 17.3074L155.719 9.45591C155.814 9.21506 155.957 8.97422 156.244 8.82971C156.482 8.63704 156.769 8.58887 157.103 8.58887H161.208L154.573 26.0742Z" fill="#D8271C"/>
<path d="M121.542 21.9317C121.447 21.739 121.304 21.6427 121.208 21.5464C121.065 21.45 120.874 21.4019 120.683 21.4019C120.54 21.4019 120.397 21.45 120.301 21.4982C120.206 21.5464 120.11 21.5945 120.015 21.6427C119.967 21.6909 119.872 21.6909 119.776 21.739C119.681 21.7872 119.585 21.7872 119.442 21.7872C119.203 21.7872 119.06 21.739 118.965 21.5464C118.821 21.3537 118.774 21.161 118.774 20.8238V13.3095H122.64V9.40779H118.774V5.02441H114.573V5.07258C113.905 5.21709 113.428 5.84329 113.428 6.51765V21.1128C113.428 21.8354 113.523 22.5097 113.762 23.1359C114.001 23.7621 114.287 24.292 114.717 24.7255C115.146 25.159 115.671 25.4962 116.292 25.7371C116.912 25.9779 117.58 26.0743 118.392 26.0743C119.203 26.0743 120.063 25.9779 120.826 25.7371C121.638 25.4962 122.354 25.1109 122.974 24.6774L123.213 24.4847L121.542 21.9317Z" fill="#D8271C"/>
<path d="M141.494 21.9317C141.399 21.739 141.255 21.6427 141.16 21.5464C141.017 21.45 140.826 21.4019 140.635 21.4019C140.492 21.4019 140.349 21.45 140.253 21.4982C140.158 21.5464 140.062 21.5945 139.967 21.6427C139.919 21.6909 139.824 21.6909 139.728 21.739C139.633 21.7872 139.537 21.7872 139.394 21.7872C139.155 21.7872 139.012 21.739 138.917 21.5464C138.773 21.3537 138.726 21.161 138.726 20.8238V13.3095H142.592V9.40779H138.726V5.02441H134.525V5.07258C133.857 5.21709 133.38 5.84329 133.38 6.51765V21.1128C133.38 21.8354 133.475 22.5097 133.714 23.1359C133.952 23.7621 134.239 24.292 134.668 24.7255C135.098 25.159 135.623 25.4962 136.244 25.7371C136.864 25.9779 137.532 26.0743 138.344 26.0743C139.155 26.0743 140.014 25.9779 140.778 25.7371C141.59 25.4962 142.306 25.1109 142.926 24.6774L143.165 24.4847L141.494 21.9317Z" fill="#D8271C"/>
<path d="M16.149 0.304688C7.414 0.304688 0.30188 7.38553 0.30188 16.1523C0.30188 24.919 7.414 31.9999 16.149 31.9999C24.884 31.9999 31.9962 24.919 31.9962 16.1523C32.0439 7.38553 24.9318 0.304688 16.149 0.304688ZM21.8292 15.5743L13.2851 20.2948C12.5691 20.6802 11.9963 20.2466 11.9963 19.3314L11.9008 10.661C11.9008 9.7458 12.4736 9.26412 13.1896 9.64947L21.7814 14.1773C22.4974 14.5627 22.5452 15.1889 21.8292 15.5743Z" fill="#20BEC6"/>
<path opacity="0.5" d="M17.581 0.015625C8.75055 0.015625 1.5907 7.1928 1.5907 16.0077C1.5907 24.8226 8.75055 31.9998 17.581 31.9998C26.4115 31.9998 32.9031 24.8226 32.9031 16.0077C32.9509 7.1928 26.4115 0.015625 17.581 0.015625ZM23.3089 15.4297L14.7171 20.1503C14.0011 20.5356 13.4283 20.1021 13.3806 19.1869L13.2851 10.4683C13.2851 9.55308 13.8579 9.07139 14.5739 9.45674L23.2612 14.0328C23.9772 14.4181 24.0249 15.0443 23.3089 15.4297Z" fill="#20BEC6"/>
<path d="M31.8053 12.2989C31.2325 9.60143 28.2254 4.35102 26.3161 3.53214C24.5022 2.76144 23.5476 1.46088 22.8316 1.31637C22.1634 1.17187 19.013 -0.176866 17.9152 0.0639788C16.8173 0.304824 15.2422 -0.0805273 14.3352 0.0158106C13.4283 0.160317 8.60736 1.22003 5.88662 3.72482C3.30907 6.0851 2.54535 7.38566 2.54535 7.38566C2.54535 7.38566 -2.27562 17.0195 1.35204 18.1755C2.30669 18.4645 2.16349 19.0425 2.21122 20.0541C2.21122 21.5473 1.78163 21.74 2.87948 22.607C3.97732 23.4741 5.1229 21.8363 6.07754 22.7997C6.98446 23.7631 5.17063 25.8825 7.74818 27.3276C10.3257 28.7245 9.94387 25.0637 11.7577 25.6899C13.6193 26.3161 11.9964 28.9172 14.0966 29.0617C16.1968 29.2544 15.4331 26.4124 16.6741 26.6051C17.9152 26.7978 17.1992 28.8208 19.7767 28.3392C22.3543 27.8575 20.6359 25.6417 22.0202 25.2082C23.4521 24.7747 23.9294 27.5685 26.6979 24.871C29.4664 22.1735 26.8411 22.2217 27.4616 21.162C28.0344 20.1023 28.655 21.9327 29.4664 19.4761C30.3256 17.0195 29.5619 17.9347 29.4664 16.7786C29.3709 15.6707 32.3781 14.9964 31.8053 12.2989Z" fill="white"/>
<path d="M26.8411 20.4386H24.8841C24.6931 20.4386 24.5499 20.2941 24.5499 20.1014V19.5716C24.5499 19.3789 24.6931 19.2344 24.8841 19.2344H26.8411C27.032 19.2344 27.1752 19.3789 27.1752 19.5716V20.1014C27.1275 20.2459 26.9843 20.4386 26.8411 20.4386Z" fill="#D8271C"/>
<path d="M27.3184 14.5621C27.2707 14.5621 27.2229 14.5621 27.1275 14.5139L26.6979 14.2249C26.6024 14.1767 26.5547 14.0804 26.5547 14.0322C26.5547 13.9359 26.5547 13.8396 26.6024 13.7914L27.6048 12.0573C27.7003 11.9128 27.8912 11.8165 28.0344 11.9128L28.464 12.2018C28.5594 12.25 28.6072 12.3463 28.6072 12.3945C28.6072 12.4908 28.6072 12.5872 28.5594 12.6353L27.5571 14.3694C27.5571 14.5139 27.4139 14.5621 27.3184 14.5621Z" fill="#D8271C"/>
<path d="M24.55 10.9501C24.5022 10.9501 24.4545 10.9501 24.4068 10.9019L23.9772 10.6129C23.834 10.5166 23.7862 10.3239 23.8817 10.1312L24.8841 8.39715C24.9795 8.25265 25.1705 8.15631 25.3137 8.25265L25.7433 8.54166C25.8387 8.58983 25.8865 8.68617 25.8865 8.73434C25.8865 8.83067 25.8865 8.92701 25.8387 8.97518L24.8363 10.7574C24.7409 10.8538 24.6454 10.9501 24.55 10.9501Z" fill="#F6BF48"/>
<path d="M21.9247 6.80727C21.8769 6.80727 21.8292 6.80727 21.7815 6.7591C21.686 6.71093 21.6383 6.66276 21.5905 6.56642L20.9223 4.63966C20.8745 4.54333 20.8745 4.44699 20.9223 4.39882C20.97 4.30248 21.0177 4.25431 21.1132 4.20614L21.5905 4.01347C21.7815 3.9653 21.9724 4.01347 22.0201 4.20614L22.6884 6.1329C22.7361 6.32558 22.6884 6.51825 22.4974 6.56642L22.0201 6.7591C22.0201 6.80727 21.9724 6.80727 21.9247 6.80727Z" fill="#D8271C"/>
<path d="M19.2039 7.52993C19.1562 7.57809 19.1562 7.57809 19.1084 7.62626C19.013 7.67443 18.9652 7.67443 18.8698 7.67443L16.9127 7.14457C16.8173 7.14457 16.7695 7.04824 16.7218 7.00007C16.6741 6.90373 16.6741 6.80739 16.6741 6.75922L16.8173 6.27753C16.865 6.08486 17.0559 5.98852 17.1991 6.03669L19.1562 6.56655C19.2516 6.56655 19.2994 6.66288 19.3471 6.71105C19.3948 6.80739 19.3948 6.90373 19.3948 6.9519L19.2516 7.43359C19.2516 7.48176 19.2516 7.52993 19.2039 7.52993Z" fill="#20BEC6"/>
<path d="M14.4307 4.06157C14.2875 4.06157 14.1443 3.96523 14.0966 3.77256L14.0011 3.2427C14.0011 3.14636 14.0011 3.05002 14.0488 3.00186C14.0966 2.90552 14.192 2.85735 14.2398 2.85735L16.1491 2.42383C16.2445 2.42383 16.34 2.42383 16.3877 2.472C16.4832 2.52017 16.5309 2.6165 16.5309 2.66467L16.6264 3.19453C16.6741 3.38721 16.5309 3.57988 16.3877 3.62805L14.4784 4.06157C14.4784 4.06157 14.4307 4.06157 14.4307 4.06157Z" fill="#F6BF48"/>
<path d="M20.1107 23.5702C20.063 23.5702 20.0153 23.5702 19.9675 23.5221L19.538 23.233C19.3948 23.1367 19.347 22.944 19.4425 22.7514L20.4449 21.0173C20.5403 20.8728 20.7313 20.7764 20.8745 20.8728L21.304 21.1618C21.3995 21.2099 21.4472 21.3063 21.4472 21.3545C21.4472 21.4508 21.4472 21.5471 21.3995 21.5953L20.3971 23.3294C20.3017 23.5221 20.2062 23.5702 20.1107 23.5702Z" fill="#20BEC6"/>
<path d="M5.88656 11.0941L4.1682 10.227C4.025 10.1307 3.92954 9.93801 4.025 9.79351L4.26366 9.31182C4.35913 9.11914 4.55006 9.07097 4.69325 9.16731L6.41162 10.0344C6.55482 10.1307 6.65028 10.3234 6.55481 10.4679L6.31615 10.9496C6.22069 11.0941 6.02976 11.1904 5.88656 11.0941Z" fill="#F6BF48"/>
<path d="M6.07751 19.6683C6.02978 19.6201 5.98205 19.5719 5.98205 19.5238L5.74338 19.0421C5.64792 18.8976 5.74338 18.6567 5.88658 18.5604L7.65268 17.597C7.74814 17.5488 7.84361 17.5488 7.89134 17.5488C7.9868 17.597 8.03454 17.6452 8.08227 17.6933L8.32093 18.175C8.36866 18.2714 8.36866 18.3677 8.32093 18.4159C8.2732 18.5122 8.22547 18.5604 8.17773 18.6085L6.41164 19.5719C6.31617 19.6201 6.22071 19.6201 6.17297 19.6201C6.12524 19.6683 6.07751 19.6683 6.07751 19.6683Z" fill="#20BEC6"/>
<path d="M8.32095 7.77042C8.27322 7.77042 8.22548 7.77042 8.13002 7.72225L7.70043 7.43324C7.55723 7.3369 7.5095 7.14422 7.60496 6.95155L8.60734 5.21747C8.70281 5.07296 8.89374 4.97662 9.03693 5.07296L9.46653 5.36197C9.56199 5.41014 9.60972 5.50648 9.60972 5.55465C9.60972 5.65099 9.60972 5.74732 9.56199 5.79549L8.55961 7.52957C8.51188 7.62591 8.46415 7.67408 8.36868 7.67408C8.36868 7.77042 8.32095 7.77042 8.32095 7.77042Z" fill="#D8271C"/>
<path d="M7.07984 15.6705C6.98437 15.7668 6.79344 15.7668 6.69798 15.6223L5.17054 14.3218C5.02734 14.1773 5.02734 13.9846 5.12281 13.8401L5.45693 13.4547C5.50467 13.4066 5.60013 13.3584 5.6956 13.3584C5.79106 13.3584 5.88653 13.3584 5.93426 13.4547L7.46169 14.7553C7.50943 14.8035 7.55716 14.8998 7.60489 14.9961C7.60489 15.0925 7.60489 15.1888 7.55716 15.237L7.22303 15.6223C7.12757 15.6705 7.12757 15.6705 7.07984 15.6705Z" fill="#D8271C"/>
<path d="M8.89368 24.3885C8.75049 24.3885 8.60729 24.2922 8.55956 24.1477L8.0345 22.1728C7.98677 21.9801 8.08224 21.7874 8.27316 21.7392L8.75049 21.5947C8.84595 21.5947 8.94142 21.5947 8.98915 21.6429C9.08461 21.6911 9.13235 21.7392 9.13235 21.8356L9.6574 23.8105C9.6574 23.9068 9.6574 24.0032 9.60967 24.0513C9.56194 24.1477 9.5142 24.1959 9.41874 24.1959L8.94142 24.3404C8.98915 24.3885 8.94142 24.3885 8.89368 24.3885Z" fill="#D8271C"/>
<path d="M15.3375 25.4002C15.1943 25.4002 15.0511 25.3039 15.0034 25.1594L14.5261 23.1845C14.4783 22.9918 14.5738 22.7991 14.7647 22.751L15.2421 22.6064C15.3375 22.6064 15.433 22.6064 15.4807 22.6546C15.5762 22.7028 15.6239 22.7991 15.6239 22.8473L16.149 24.8222C16.149 24.9186 16.149 25.0149 16.1012 25.0631C16.0535 25.1594 16.0058 25.2076 15.9103 25.2076L15.433 25.3521C15.3853 25.4002 15.3853 25.4002 15.3375 25.4002Z" fill="#F6BF48"/>
<path d="M23.4521 13.8884L12.4259 8.10817C11.519 7.62648 10.7552 8.20451 10.7552 9.40873L10.8507 20.4876C10.8507 21.6918 11.6144 22.2217 12.5213 21.74L23.4521 15.7189C24.4067 15.189 24.359 14.3701 23.4521 13.8884Z" fill="#2D3945"/>
<path d="M23.4521 13.8884L12.4259 8.10817C11.519 7.62648 10.7552 8.20451 10.7552 9.40873V10.902L21.7814 16.5859L23.4043 15.6707C24.4067 15.189 24.359 14.3701 23.4521 13.8884Z" fill="#20BEC6"/>
</svg>
